<svg width="38" height="37" viewBox="0 0 38 37" fill="none" xmlns="http://www.w3.org/2000/svg">
<path d="M34.3084 21.3333H9.07925L6.13645 7.66667H37L34.3084 21.3333Z" fill="#F3F3F3"/>
<path d="M1 1H4.70093L6.13645 7.66667M33.6355 26H10.0841L9.07925 21.3333M9.07925 21.3333H34.3084L37 7.66667H6.13645M9.07925 21.3333L6.13645 7.66667" stroke="#F3F3F3" stroke-width="2" stroke-linecap="round" stroke-linejoin="round"/>
<path fill-rule="evenodd" clip-rule="evenodd" d="M13.1121 37C15.3419 37 17.1495 35.2091 17.1495 33C17.1495 30.7909 15.3419 29 13.1121 29C10.8823 29 9.07471 30.7909 9.07471 33C9.07471 35.2091 10.8823 37 13.1121 37ZM13.1122 35.6667C14.5987 35.6667 15.8038 34.4728 15.8038 33C15.8038 31.5272 14.5987 30.3333 13.1122 30.3333C11.6257 30.3333 10.4206 31.5272 10.4206 33C10.4206 34.4728 11.6257 35.6667 13.1122 35.6667Z" fill="#F3F3F3"/>
<path fill-rule="evenodd" clip-rule="evenodd" d="M29.9346 37C32.1644 37 33.972 35.2091 33.972 33C33.972 30.7909 32.1644 29 29.9346 29C27.7048 29 25.8972 30.7909 25.8972 33C25.8972 35.2091 27.7048 37 29.9346 37ZM29.9346 35.6667C31.4212 35.6667 32.6262 34.4728 32.6262 33C32.6262 31.5272 31.4212 30.3333 29.9346 30.3333C28.4481 30.3333 27.243 31.5272 27.243 33C27.243 34.4728 28.4481 35.6667 29.9346 35.6667Z" fill="#F3F3F3"/>
</svg>
